<svg id="Layer_1" data-name="Layer 1"
    xmlns="http://www.w3.org/2000/svg"
    xmlnsXlink="http://www.w3.org/1999/xlink" viewBox="0 0 209.92 209.92">
    <defs>
        <linearGradient id="linear-gradient" y1="104.96" x2="209.92" y2="104.96" gradientUnits="userSpaceOnUse">
            <stop offset="0" stop-color="#6495ed" />
            <stop offset=".22" stop-color="#6097ed" />
            <stop offset=".44" stop-color="#559bee" />
            <stop offset=".64" stop-color="#42a3f0" />
            <stop offset=".85" stop-color="#27aff3" />
            <stop offset="1" stop-color="#0eb9f5" />
        </linearGradient>
        <linearGradient id="linear-gradient-2" x1="40.15" y1="104.96" x2="169.77" y2="104.96" gradientUnits="userSpaceOnUse">
            <stop offset=".53" stop-color="#fff" />
            <stop offset=".82" stop-color="#fff" stop-opacity="0" />
        </linearGradient>
        <linearGradient id="linear-gradient-3" x1="44.65" y1="104.96" x2="165.27" y2="104.96" xlinkHref="#linear-gradient-2" />
    </defs>
    <rect width="209.92" height="209.92" rx="40.7" fill="url(#linear-gradient)" />
    <circle cx="104.96" cy="104.96" r="58.81" stroke-width="12" opacity=".6" stroke="url(#linear-gradient-2)" fill="none" stroke-miterlimit="10" />
    <circle cx="104.96" cy="104.96" r="58.81" stroke-width="3" stroke="url(#linear-gradient-3)" fill="none" stroke-miterlimit="10" />
    <circle fill='#fff' cx="104.96" cy="104.96" r="14.25" />
    <path fill='#fff' d="M117.24 53.31a14.25 14.25 0 01-10.93 7c0 8.27.06 22.23.08 30.45h-2.65c0-8.05-.06-22.13-.08-30.42a14.36 14.36 0 01-12.93-15.05A14.24 14.24 0 01119 43.5a13.7 13.7 0 01-1.76 9.81zM53.52 115a14.29 14.29 0 0110.68 7.43c7.62-3.18 20.51-8.55 28.1-11.7l1 2.44-28.07 11.68a14.33 14.33 0 01-9 17.7c-7.11 2.41-14.32-.68-17.67-7.57a14.18 14.18 0 015.24-17.82 13.7 13.7 0 019.72-2.16zM146.91 137.56a14.25 14.25 0 01-2.23-12.81L116.58 113l1-2.44 28.07 11.72a14.33 14.33 0 0118.91-6.06c6.71 3.35 9.59 10.65 7 17.88a14.18 14.18 0 01-16.35 8.82 13.78 13.78 0 01-8.3-5.36z" />
</svg>