<svg id="Layer_1" data-name="Layer 1" xmlns="http://www.w3.org/2000/svg" viewBox="0 0 316.56 316.36"><path d="M316.56,39.88v236.4c-.23,2-.41,4-.71,6A40.74,40.74,0,0,1,284,315.41c-2,.39-4.07.64-6.11.95H38.4c-1-.15-2-.33-3-.45-16.69-2-31.22-15.47-34.39-32-.42-2.14-.66-4.31-1-6.47V38.68c.24-1.68.45-3.37.71-5C3.71,14.75,21,0,40.14,0H276.37a36.33,36.33,0,0,1,4.9.32,40.69,40.69,0,0,1,34.85,35.54C316.28,37.21,316.41,38.54,316.56,39.88ZM95.38,228c1.65,1.48,3.25,3,4.92,4.4C119,248.2,140.82,254.49,165,253.16a83.35,83.35,0,0,0,17.22-2.91,87.4,87.4,0,0,0,37.41-21.08,2.14,2.14,0,0,1,3-.37,21.17,21.17,0,0,0,27.18-5.47,19.79,19.79,0,0,0,4.64-15.17,21.47,21.47,0,0,0-9.67-16,1.45,1.45,0,0,1-.68-1.84,86.68,86.68,0,0,0,3.42-17.25,87.67,87.67,0,0,0-.45-24.85c-3.25-18.83-12-34.85-25.21-48.49-11.07-11.45-24.6-18.81-39.91-23-2.2-.6-2.2-.6-2.27-2.83q0-.6-.09-1.2c-.81-8.89-5.12-15.46-13.42-18.85S150.38,52.31,143.76,58c-4.9,4.18-7.06,9.77-7,16.18a1.8,1.8,0,0,1-1.53,2.14A109.85,109.85,0,0,0,116.07,84c-10.16,5.26-19.29,11.93-26.46,20.88-19.82,24.75-26.07,52.59-18.17,83.41.59,2.28.68,3.92-1.46,5.21a6.85,6.85,0,0,0-.8.73c-5.86,5.5-8.31,12.18-6.76,20.14A21.64,21.64,0,0,0,85.7,231.44,23.63,23.63,0,0,0,95.38,228Z" transform="translate(0 0)"/><path d="M156.36,140.94c-7.65,1.13-13.51,4.75-17.09,11.54s-3.26,13.6.09,20.45c-.3.21-.57.43-.87.61q-18.32,11.4-36.63,22.81c-.81.51-1.27.55-2-.23-3.57-4-7.86-6.64-13.26-7.27a1.7,1.7,0,0,1-1.57-1.39c-8.27-28.64-3.06-54.32,17.1-76.55a73.53,73.53,0,0,1,37.89-22.22,3.45,3.45,0,0,1,3.65.93,21,21,0,0,0,11,5.4c1.13.2,1.53.61,1.52,1.77,0,8.16,0,16.32,0,24.48q0,9.06.08,18.12Z" transform="translate(0 0)"/><path d="M177.06,172.92a25,25,0,0,0,2.66-9.37,21.59,21.59,0,0,0-17.25-22.13c-2.11-.46-2.11-.46-2.11-2.57V95.38l3.31-.84a20.62,20.62,0,0,0,9.61-5.38,2.28,2.28,0,0,1,2.37-.65,77.06,77.06,0,0,1,56,98.25,2.76,2.76,0,0,1-2.59,2.25,19.8,19.8,0,0,0-12.24,7c-.82.92-1.36.9-2.35.28q-18-11.25-36-22.42Z" transform="translate(0 0)"/><path d="M102.92,200.37l38.67-24.05a22,22,0,0,0,33.26,0l38.68,24c-.57,2-1.2,3.81-1.62,5.7-.77,3.48-.16,6.92.62,10.32a2.27,2.27,0,0,1-.68,2.38c-9.56,9.14-20.54,15.8-33.47,19-14.33,3.55-28.61,3.86-42.82-.57-11.46-3.58-21.37-9.8-30.25-17.77a3.36,3.36,0,0,1-1.14-3.67c1.58-5.11.86-10-1.14-14.85C103,200.75,103,200.63,102.92,200.37Z" transform="translate(0 0)"/></svg>