<svg id="Layer_1" data-name="Layer 1"
    xmlns="http://www.w3.org/2000/svg" viewBox="0 0 511.64 173.16">
    <path d="M164.16,366.53V196.31h40.53V259.4a1.6,1.6,0,0,0,2.25-.87,17,17,0,0,1,5.5-5.88c17.06-12,41.84-7.9,55.64,4.23a59.89,59.89,0,0,1,19.85,36,82.44,82.44,0,0,1-1.89,38c-4.15,13.91-12.36,24.79-25,32.08-7.61,4.38-15.93,6.23-24.66,6.48a46.77,46.77,0,0,1-21.59-4.06,34.46,34.46,0,0,1-15.58-13.74,1.16,1.16,0,0,0-1.44-.7,1.79,1.79,0,0,0-1,.91q-2.78,6.89-5.46,13.81c-.23.59-.44,1-1.23,1-8.4,0-16.8,0-25.2,0Zm84.13-59.36A37,37,0,0,0,245.78,293c-4.48-11-14.24-16.21-25.68-13.61-7.65,1.74-12.41,6.84-15.08,13.94-2.83,7.54-2.87,15.34-1.35,23.15a26.11,26.11,0,0,0,8,14.7c7.41,6.81,22.75,7.79,30.91-3.95C246.76,321.17,248.27,314.4,248.29,307.17Z" transform="translate(-164.16 -196.31)" />
    <path d="M387.4,248.37H428V366.54c-.4,0-.82.06-1.25.06-8.4,0-16.79,0-25.19,0a1.52,1.52,0,0,1-1.66-1.12q-2.84-6.74-5.77-13.43a2.27,2.27,0,0,0-1.09-1.15c-.78-.31-1.25.25-1.71.89-5.06,7.11-11.43,12.55-19.78,15.46-6,2.1-12.21,2.43-18.47,2a48.23,48.23,0,0,1-20.62-5.72c-11.1-6.2-18-15.66-21.37-27.82a65.71,65.71,0,0,1-2.2-17.43q0-34.38,0-68.75v-1.17h40.6v66.75a23,23,0,0,0,2.72,11.53,15.76,15.76,0,0,0,12.39,8.41c4.92.61,9.72.15,13.95-2.63,6-3.95,8.89-9.66,8.9-16.82q0-32.82,0-65.64Z" transform="translate(-164.16 -196.31)" />
    <path d="M449,357.1l11.84-27.62c2.68,1.42,5.25,2.88,7.89,4.17,9.68,4.76,19.86,7.53,30.72,7.23a42.46,42.46,0,0,0,7.67-1.1,6.41,6.41,0,0,0,4.23-2.94c1.55-2.55.86-5.67-1.87-7.58a17.69,17.69,0,0,0-4.66-2.38c-6.09-1.93-12.23-3.69-18.34-5.52s-12-3.44-17.47-6.54c-10.9-6.19-17.11-15.54-18.11-28.19-.49-6.11,0-12.07,2.55-17.72,3.91-8.8,10.67-14.71,19.33-18.58a59.84,59.84,0,0,1,21.3-4.68,143.4,143.4,0,0,1,22.51.65,153,153,0,0,1,26.55,5.21,47.61,47.61,0,0,1,10.44,4.73l-11.5,28.87c-2.84-1.5-5.53-3.05-8.34-4.37a65.84,65.84,0,0,0-30.86-6.1,22.18,22.18,0,0,0-6.86,1.44,5.22,5.22,0,0,0-3.31,6.59,5.92,5.92,0,0,0,3.38,3.56,59.8,59.8,0,0,0,7.7,2.94c6.34,1.79,12.78,3.23,19.08,5.13a77.61,77.61,0,0,1,13.43,5c11.45,6,18,15.43,19.08,28.51.56,6.94-.22,13.66-3.49,19.91-4.25,8.14-11,13.45-19.41,16.82a67.27,67.27,0,0,1-19,4.31,136.53,136.53,0,0,1-30-.5c-9.18-1.16-18.2-3.11-26.71-6.86A81.7,81.7,0,0,1,449,357.1Z" transform="translate(-164.16 -196.31)" />
    <path d="M673.92,256c-3.93,9.89-7.76,19.51-11.58,29.11-2.77-1.47-5.4-3-8.13-4.28a65.73,65.73,0,0,0-31.08-6.2,22.47,22.47,0,0,0-6.85,1.44,5.24,5.24,0,0,0-3.28,6.71,5.94,5.94,0,0,0,3.25,3.38,58.4,58.4,0,0,0,7.69,3c6.1,1.74,12.32,3.08,18.39,4.92a83.54,83.54,0,0,1,14.13,5.21c11.5,6,18.15,15.43,19.18,28.56.61,7.72-.44,15.09-4.54,21.8-4.76,7.77-11.8,12.67-20.27,15.65-8.27,2.91-16.86,3.91-25.57,4.1a130.33,130.33,0,0,1-31.34-2.67c-5.81-1.29-11.62-2.66-17-5.24-2.62-1.25-5.06-2.88-7.64-4.37l11.84-27.62c2.72,1.44,5.32,2.92,8,4.23,9.65,4.72,19.8,7.47,30.61,7.17a46.19,46.19,0,0,0,7.56-1.07,7.88,7.88,0,0,0,2.87-1.42,5.22,5.22,0,0,0,.72-8.06,12.81,12.81,0,0,0-4.57-2.94c-6.17-2.07-12.41-3.92-18.64-5.77s-12.67-3.56-18.38-6.8c-10.9-6.18-17.11-15.54-18.12-28.19-.72-9.1,1-17.5,6.78-24.8a39.64,39.64,0,0,1,18.79-12.94c8-2.73,16.22-3.48,24.58-3.41a135.17,135.17,0,0,1,25.4,2.24c6.14,1.22,12.25,2.67,18.27,4.39C668,253,670.87,254.65,673.92,256Z" transform="translate(-164.16 -196.31)" />
</svg>