<svg id="Layer_1" data-name="Layer 1" xmlns="http://www.w3.org/2000/svg" xmlns:xlink="http://www.w3.org/1999/xlink" viewBox="0 0 209.92 209.92"><defs><style>.cls-1{fill:url(#linear-gradient);}.cls-2,.cls-3{fill:none;stroke-miterlimit:10;}.cls-2{stroke-width:12px;opacity:0.6;stroke:url(#linear-gradient-2);}.cls-3{stroke-width:3px;stroke:url(#linear-gradient-3);}.cls-4{fill:#fff;}</style><linearGradient id="linear-gradient" y1="104.96" x2="209.92" y2="104.96" gradientUnits="userSpaceOnUse"><stop offset="0" stop-color="#6495ed"/><stop offset="0.22" stop-color="#6097ed"/><stop offset="0.44" stop-color="#559bee"/><stop offset="0.64" stop-color="#42a3f0"/><stop offset="0.85" stop-color="#27aff3"/><stop offset="1" stop-color="#0eb9f5"/></linearGradient><linearGradient id="linear-gradient-2" x1="40.15" y1="104.96" x2="169.77" y2="104.96" gradientUnits="userSpaceOnUse"><stop offset="0.53" stop-color="#fff"/><stop offset="0.82" stop-color="#fff" stop-opacity="0"/></linearGradient><linearGradient id="linear-gradient-3" x1="44.65" y1="104.96" x2="165.27" y2="104.96" xlink:href="#linear-gradient-2"/></defs><rect class="cls-1" width="209.92" height="209.92" rx="40.7"/><circle class="cls-2" cx="104.96" cy="104.96" r="58.81"/><circle class="cls-3" cx="104.96" cy="104.96" r="58.81"/><circle class="cls-4" cx="104.96" cy="104.96" r="14.25"/><path class="cls-4" d="M117.24,53.31a14.25,14.25,0,0,1-10.93,7c0,8.27.06,22.23.08,30.45h-2.65c0-8.05-.06-22.13-.08-30.42A14.36,14.36,0,0,1,90.73,45.29,14.24,14.24,0,0,1,119,43.5,13.7,13.7,0,0,1,117.24,53.31Z"/><path class="cls-4" d="M53.52,115a14.29,14.29,0,0,1,10.68,7.43c7.62-3.18,20.51-8.55,28.1-11.7l1,2.44L65.23,124.85a14.33,14.33,0,0,1-9,17.7c-7.11,2.41-14.32-.68-17.67-7.57a14.18,14.18,0,0,1,5.24-17.82A13.7,13.7,0,0,1,53.52,115Z"/><path class="cls-4" d="M146.91,137.56a14.25,14.25,0,0,1-2.23-12.81L116.58,113l1-2.44,28.07,11.72a14.33,14.33,0,0,1,18.91-6.06c6.71,3.35,9.59,10.65,7,17.88a14.18,14.18,0,0,1-16.35,8.82A13.78,13.78,0,0,1,146.91,137.56Z"/></svg>